<mxfile host="app.diagrams.net" modified="2024-08-18T09:40:57.425Z" agent="5.0 (Windows)" etag="1Kp2kpxNS15PXvCX7vUc" version="20.5.1" type="github">
  <diagram id="rWQMvQwaEjDZF5ZdrL_w" name="Page-1">
    <mxGraphModel dx="1448" dy="714" grid="1" gridSize="10" guides="1" tooltips="1" connect="1" arrows="1" fold="1" page="1" pageScale="1" pageWidth="3300" pageHeight="4681" math="0" shadow="0">
      <root>
        <mxCell id="0" />
        <mxCell id="1" parent="0" />
        <mxCell id="olxThDtGMyigZw1vae8e-85" value="User" style="whiteSpace=wrap;html=1;align=center;shadow=0;labelBackgroundColor=none;labelBorderColor=none;" parent="1" vertex="1">
          <mxGeometry x="1390" y="1860" width="100" height="40" as="geometry" />
        </mxCell>
        <mxCell id="olxThDtGMyigZw1vae8e-87" value="Emergency Service" style="whiteSpace=wrap;html=1;align=center;shadow=0;labelBackgroundColor=none;labelBorderColor=none;" parent="1" vertex="1">
          <mxGeometry x="1780" y="1860" width="130" height="40" as="geometry" />
        </mxCell>
        <mxCell id="olxThDtGMyigZw1vae8e-91" value="" style="edgeStyle=entityRelationEdgeStyle;fontSize=12;html=1;endArrow=ERzeroToMany;endFill=1;rounded=0;entryX=0;entryY=0.5;entryDx=0;entryDy=0;exitX=1;exitY=0.5;exitDx=0;exitDy=0;startArrow=none;" parent="1" source="olxThDtGMyigZw1vae8e-86" target="olxThDtGMyigZw1vae8e-87" edge="1">
          <mxGeometry width="100" height="100" relative="1" as="geometry">
            <mxPoint x="1700" y="1880" as="sourcePoint" />
            <mxPoint x="1800" y="1780" as="targetPoint" />
          </mxGeometry>
        </mxCell>
        <mxCell id="olxThDtGMyigZw1vae8e-86" value="Requests" style="shape=rhombus;perimeter=rhombusPerimeter;whiteSpace=wrap;html=1;align=center;shadow=0;labelBackgroundColor=none;labelBorderColor=none;" parent="1" vertex="1">
          <mxGeometry x="1590" y="1855" width="90" height="50" as="geometry" />
        </mxCell>
        <mxCell id="olxThDtGMyigZw1vae8e-93" value="" style="edgeStyle=entityRelationEdgeStyle;fontSize=12;html=1;endArrow=none;endFill=1;rounded=0;entryX=0;entryY=0.5;entryDx=0;entryDy=0;exitX=1;exitY=0.5;exitDx=0;exitDy=0;" parent="1" source="olxThDtGMyigZw1vae8e-85" target="olxThDtGMyigZw1vae8e-86" edge="1">
          <mxGeometry width="100" height="100" relative="1" as="geometry">
            <mxPoint x="1490" y="1880" as="sourcePoint" />
            <mxPoint x="1780" y="1880" as="targetPoint" />
          </mxGeometry>
        </mxCell>
        <mxCell id="olxThDtGMyigZw1vae8e-94" value="Assistance Request" style="whiteSpace=wrap;html=1;align=center;shadow=0;labelBackgroundColor=none;labelBorderColor=none;" parent="1" vertex="1">
          <mxGeometry x="1375" y="2070" width="130" height="40" as="geometry" />
        </mxCell>
        <mxCell id="olxThDtGMyigZw1vae8e-95" value="User ID" style="ellipse;whiteSpace=wrap;html=1;align=center;shadow=0;labelBackgroundColor=none;labelBorderColor=none;" parent="1" vertex="1">
          <mxGeometry x="1850" y="1790" width="80" height="30" as="geometry" />
        </mxCell>
        <mxCell id="olxThDtGMyigZw1vae8e-97" value="ID" style="ellipse;whiteSpace=wrap;html=1;align=center;fontStyle=4;shadow=0;labelBackgroundColor=none;labelBorderColor=none;" parent="1" vertex="1">
          <mxGeometry x="1770" y="1790" width="70" height="30" as="geometry" />
        </mxCell>
        <mxCell id="olxThDtGMyigZw1vae8e-98" value="Type" style="ellipse;whiteSpace=wrap;html=1;align=center;shadow=0;labelBackgroundColor=none;labelBorderColor=none;" parent="1" vertex="1">
          <mxGeometry x="1930" y="1820" width="60" height="30" as="geometry" />
        </mxCell>
        <mxCell id="olxThDtGMyigZw1vae8e-99" value="Location" style="ellipse;whiteSpace=wrap;html=1;align=center;shadow=0;labelBackgroundColor=none;labelBorderColor=none;" parent="1" vertex="1">
          <mxGeometry x="1940" y="1865" width="90" height="35" as="geometry" />
        </mxCell>
        <mxCell id="olxThDtGMyigZw1vae8e-100" value="Contact Info" style="ellipse;whiteSpace=wrap;html=1;align=center;shadow=0;labelBackgroundColor=none;labelBorderColor=none;" parent="1" vertex="1">
          <mxGeometry x="1920" y="1920" width="90" height="30" as="geometry" />
        </mxCell>
        <mxCell id="olxThDtGMyigZw1vae8e-101" value="Status" style="ellipse;whiteSpace=wrap;html=1;align=center;shadow=0;labelBackgroundColor=none;labelBorderColor=none;" parent="1" vertex="1">
          <mxGeometry x="1860" y="1950" width="60" height="30" as="geometry" />
        </mxCell>
        <mxCell id="olxThDtGMyigZw1vae8e-102" value="Time" style="ellipse;whiteSpace=wrap;html=1;align=center;shadow=0;labelBackgroundColor=none;labelBorderColor=none;" parent="1" vertex="1">
          <mxGeometry x="1770" y="1940" width="70" height="30" as="geometry" />
        </mxCell>
        <mxCell id="olxThDtGMyigZw1vae8e-103" value="" style="line;strokeWidth=1;rotatable=0;dashed=0;labelPosition=right;align=left;verticalAlign=middle;spacingTop=0;spacingLeft=6;points=[];portConstraint=eastwest;shadow=0;labelBackgroundColor=none;labelBorderColor=none;" parent="1" vertex="1">
          <mxGeometry x="1815" y="1855" width="60" height="10" as="geometry" />
        </mxCell>
        <mxCell id="olxThDtGMyigZw1vae8e-105" value="" style="endArrow=none;html=1;rounded=0;exitX=0.3;exitY=1.025;exitDx=0;exitDy=0;exitPerimeter=0;" parent="1" source="olxThDtGMyigZw1vae8e-87" target="olxThDtGMyigZw1vae8e-102" edge="1">
          <mxGeometry relative="1" as="geometry">
            <mxPoint x="1760" y="1910" as="sourcePoint" />
            <mxPoint x="1920" y="1910" as="targetPoint" />
          </mxGeometry>
        </mxCell>
        <mxCell id="olxThDtGMyigZw1vae8e-106" value="" style="endArrow=none;html=1;rounded=0;exitX=0.485;exitY=0.992;exitDx=0;exitDy=0;exitPerimeter=0;entryX=0.306;entryY=0.033;entryDx=0;entryDy=0;entryPerimeter=0;" parent="1" source="olxThDtGMyigZw1vae8e-87" target="olxThDtGMyigZw1vae8e-101" edge="1">
          <mxGeometry relative="1" as="geometry">
            <mxPoint x="1829" y="1911" as="sourcePoint" />
            <mxPoint x="1818.8651034126774" y="1950.0917439796735" as="targetPoint" />
          </mxGeometry>
        </mxCell>
        <mxCell id="olxThDtGMyigZw1vae8e-107" value="" style="endArrow=none;html=1;rounded=0;exitX=0.769;exitY=1;exitDx=0;exitDy=0;exitPerimeter=0;entryX=0.011;entryY=0.267;entryDx=0;entryDy=0;entryPerimeter=0;" parent="1" source="olxThDtGMyigZw1vae8e-87" target="olxThDtGMyigZw1vae8e-100" edge="1">
          <mxGeometry relative="1" as="geometry">
            <mxPoint x="1839" y="1921" as="sourcePoint" />
            <mxPoint x="1828.8651034126774" y="1960.0917439796735" as="targetPoint" />
          </mxGeometry>
        </mxCell>
        <mxCell id="olxThDtGMyigZw1vae8e-108" value="" style="endArrow=none;html=1;rounded=0;exitX=-0.007;exitY=0.581;exitDx=0;exitDy=0;exitPerimeter=0;entryX=1;entryY=0.5;entryDx=0;entryDy=0;" parent="1" source="olxThDtGMyigZw1vae8e-99" target="olxThDtGMyigZw1vae8e-87" edge="1">
          <mxGeometry relative="1" as="geometry">
            <mxPoint x="1849" y="1931" as="sourcePoint" />
            <mxPoint x="1838.8651034126774" y="1970.0917439796735" as="targetPoint" />
          </mxGeometry>
        </mxCell>
        <mxCell id="olxThDtGMyigZw1vae8e-109" value="" style="endArrow=none;html=1;rounded=0;exitX=0;exitY=0.667;exitDx=0;exitDy=0;exitPerimeter=0;entryX=1;entryY=0;entryDx=0;entryDy=0;" parent="1" source="olxThDtGMyigZw1vae8e-98" target="olxThDtGMyigZw1vae8e-87" edge="1">
          <mxGeometry relative="1" as="geometry">
            <mxPoint x="1859" y="1941" as="sourcePoint" />
            <mxPoint x="1848.8651034126774" y="1980.0917439796735" as="targetPoint" />
          </mxGeometry>
        </mxCell>
        <mxCell id="olxThDtGMyigZw1vae8e-110" value="" style="endArrow=none;html=1;rounded=0;" parent="1" source="olxThDtGMyigZw1vae8e-95" target="olxThDtGMyigZw1vae8e-87" edge="1">
          <mxGeometry relative="1" as="geometry">
            <mxPoint x="1869" y="1951" as="sourcePoint" />
            <mxPoint x="1858.8651034126774" y="1990.0917439796735" as="targetPoint" />
          </mxGeometry>
        </mxCell>
        <mxCell id="olxThDtGMyigZw1vae8e-111" value="" style="endArrow=none;html=1;rounded=0;exitX=0.5;exitY=1;exitDx=0;exitDy=0;" parent="1" source="olxThDtGMyigZw1vae8e-97" target="olxThDtGMyigZw1vae8e-87" edge="1">
          <mxGeometry relative="1" as="geometry">
            <mxPoint x="1879" y="1961" as="sourcePoint" />
            <mxPoint x="1820" y="1870" as="targetPoint" />
          </mxGeometry>
        </mxCell>
        <mxCell id="olxThDtGMyigZw1vae8e-112" value="" style="fontSize=12;html=1;endArrow=ERoneToMany;rounded=0;exitX=0.5;exitY=1;exitDx=0;exitDy=0;entryX=0.5;entryY=0;entryDx=0;entryDy=0;" parent="1" source="olxThDtGMyigZw1vae8e-85" target="olxThDtGMyigZw1vae8e-94" edge="1">
          <mxGeometry width="100" height="100" relative="1" as="geometry">
            <mxPoint x="1700" y="2010" as="sourcePoint" />
            <mxPoint x="1800" y="1910" as="targetPoint" />
          </mxGeometry>
        </mxCell>
        <mxCell id="olxThDtGMyigZw1vae8e-113" value="Creates" style="shape=rhombus;perimeter=rhombusPerimeter;whiteSpace=wrap;html=1;align=center;shadow=0;labelBackgroundColor=none;labelBorderColor=none;" parent="1" vertex="1">
          <mxGeometry x="1380" y="1950" width="120" height="60" as="geometry" />
        </mxCell>
        <mxCell id="olxThDtGMyigZw1vae8e-114" value="" style="edgeStyle=entityRelationEdgeStyle;fontSize=12;html=1;endArrow=ERmandOne;startArrow=none;rounded=0;exitX=1;exitY=0.5;exitDx=0;exitDy=0;entryX=0;entryY=0.5;entryDx=0;entryDy=0;" parent="1" source="olxThDtGMyigZw1vae8e-116" target="olxThDtGMyigZw1vae8e-94" edge="1">
          <mxGeometry width="100" height="100" relative="1" as="geometry">
            <mxPoint x="1550" y="2160" as="sourcePoint" />
            <mxPoint x="1650" y="2060" as="targetPoint" />
          </mxGeometry>
        </mxCell>
        <mxCell id="olxThDtGMyigZw1vae8e-115" value="Payment" style="whiteSpace=wrap;html=1;align=center;shadow=0;labelBackgroundColor=none;labelBorderColor=none;" parent="1" vertex="1">
          <mxGeometry x="1010" y="2070" width="130" height="40" as="geometry" />
        </mxCell>
        <mxCell id="olxThDtGMyigZw1vae8e-118" value="" style="fontSize=12;html=1;endArrow=ERoneToMany;rounded=0;exitX=0.5;exitY=1;exitDx=0;exitDy=0;entryX=0.5;entryY=0;entryDx=0;entryDy=0;edgeStyle=orthogonalEdgeStyle;curved=1;startArrow=none;" parent="1" source="olxThDtGMyigZw1vae8e-119" target="olxThDtGMyigZw1vae8e-115" edge="1">
          <mxGeometry width="100" height="100" relative="1" as="geometry">
            <mxPoint x="1390" y="1880" as="sourcePoint" />
            <mxPoint x="1390" y="2050" as="targetPoint" />
          </mxGeometry>
        </mxCell>
        <mxCell id="olxThDtGMyigZw1vae8e-120" value="Service Type" style="whiteSpace=wrap;html=1;align=center;shadow=0;labelBackgroundColor=none;labelBorderColor=none;" parent="1" vertex="1">
          <mxGeometry x="1270" y="2270" width="130" height="40" as="geometry" />
        </mxCell>
        <mxCell id="olxThDtGMyigZw1vae8e-121" value="Location" style="whiteSpace=wrap;html=1;align=center;shadow=0;labelBackgroundColor=none;labelBorderColor=none;" parent="1" vertex="1">
          <mxGeometry x="1010" y="2240" width="130" height="40" as="geometry" />
        </mxCell>
        <mxCell id="olxThDtGMyigZw1vae8e-122" value="Community Post" style="whiteSpace=wrap;html=1;align=center;shadow=0;labelBackgroundColor=none;labelBorderColor=none;" parent="1" vertex="1">
          <mxGeometry x="1945" y="2025" width="130" height="40" as="geometry" />
        </mxCell>
        <mxCell id="olxThDtGMyigZw1vae8e-123" value="Forum Message" style="whiteSpace=wrap;html=1;align=center;shadow=0;labelBackgroundColor=none;labelBorderColor=none;" parent="1" vertex="1">
          <mxGeometry x="1710" y="2100" width="130" height="40" as="geometry" />
        </mxCell>
        <mxCell id="olxThDtGMyigZw1vae8e-116" value="Includes" style="shape=rhombus;perimeter=rhombusPerimeter;whiteSpace=wrap;html=1;align=center;shadow=0;labelBackgroundColor=none;labelBorderColor=none;" parent="1" vertex="1">
          <mxGeometry x="1210" y="2065" width="95" height="50" as="geometry" />
        </mxCell>
        <mxCell id="olxThDtGMyigZw1vae8e-124" value="" style="edgeStyle=entityRelationEdgeStyle;fontSize=12;html=1;endArrow=none;startArrow=ERmandOne;rounded=0;exitX=1;exitY=0.5;exitDx=0;exitDy=0;entryX=0;entryY=0.5;entryDx=0;entryDy=0;" parent="1" source="olxThDtGMyigZw1vae8e-115" target="olxThDtGMyigZw1vae8e-116" edge="1">
          <mxGeometry width="100" height="100" relative="1" as="geometry">
            <mxPoint x="1140" y="2090" as="sourcePoint" />
            <mxPoint x="1375" y="2090" as="targetPoint" />
          </mxGeometry>
        </mxCell>
        <mxCell id="olxThDtGMyigZw1vae8e-119" value="Makes" style="shape=rhombus;perimeter=rhombusPerimeter;whiteSpace=wrap;html=1;align=center;shadow=0;labelBackgroundColor=none;labelBorderColor=none;" parent="1" vertex="1">
          <mxGeometry x="1250" y="1950" width="90" height="45" as="geometry" />
        </mxCell>
        <mxCell id="olxThDtGMyigZw1vae8e-125" value="" style="fontSize=12;html=1;endArrow=none;rounded=0;exitX=0.5;exitY=1;exitDx=0;exitDy=0;entryX=0.5;entryY=0;entryDx=0;entryDy=0;edgeStyle=orthogonalEdgeStyle;curved=1;" parent="1" target="olxThDtGMyigZw1vae8e-119" edge="1">
          <mxGeometry width="100" height="100" relative="1" as="geometry">
            <mxPoint x="1390" y="1880" as="sourcePoint" />
            <mxPoint x="1075" y="2070" as="targetPoint" />
          </mxGeometry>
        </mxCell>
        <mxCell id="olxThDtGMyigZw1vae8e-126" value="" style="edgeStyle=entityRelationEdgeStyle;fontSize=12;html=1;endArrow=ERzeroToMany;endFill=1;rounded=0;curved=1;exitX=1;exitY=1;exitDx=0;exitDy=0;entryX=0;entryY=0.25;entryDx=0;entryDy=0;startArrow=none;" parent="1" source="olxThDtGMyigZw1vae8e-131" target="olxThDtGMyigZw1vae8e-122" edge="1">
          <mxGeometry width="100" height="100" relative="1" as="geometry">
            <mxPoint x="1510" y="2140" as="sourcePoint" />
            <mxPoint x="1610" y="2040" as="targetPoint" />
          </mxGeometry>
        </mxCell>
        <mxCell id="olxThDtGMyigZw1vae8e-127" value="" style="edgeStyle=entityRelationEdgeStyle;fontSize=12;html=1;endArrow=ERzeroToMany;endFill=1;rounded=0;curved=1;exitX=1;exitY=1;exitDx=0;exitDy=0;entryX=0;entryY=0.5;entryDx=0;entryDy=0;startArrow=none;" parent="1" source="olxThDtGMyigZw1vae8e-128" target="olxThDtGMyigZw1vae8e-123" edge="1">
          <mxGeometry width="100" height="100" relative="1" as="geometry">
            <mxPoint x="1470" y="1900" as="sourcePoint" />
            <mxPoint x="1720" y="2300" as="targetPoint" />
          </mxGeometry>
        </mxCell>
        <mxCell id="olxThDtGMyigZw1vae8e-128" value="Posts" style="shape=rhombus;perimeter=rhombusPerimeter;whiteSpace=wrap;html=1;align=center;shadow=0;labelBackgroundColor=none;labelBorderColor=none;" parent="1" vertex="1">
          <mxGeometry x="1620" y="2010" width="90" height="50" as="geometry" />
        </mxCell>
        <mxCell id="olxThDtGMyigZw1vae8e-130" value="" style="edgeStyle=entityRelationEdgeStyle;fontSize=12;html=1;endArrow=none;endFill=1;rounded=0;curved=1;exitX=1;exitY=1;exitDx=0;exitDy=0;entryX=0;entryY=0.5;entryDx=0;entryDy=0;" parent="1" target="olxThDtGMyigZw1vae8e-128" edge="1">
          <mxGeometry width="100" height="100" relative="1" as="geometry">
            <mxPoint x="1470" y="1900" as="sourcePoint" />
            <mxPoint x="1720" y="2321" as="targetPoint" />
          </mxGeometry>
        </mxCell>
        <mxCell id="olxThDtGMyigZw1vae8e-131" value="Creates" style="shape=rhombus;perimeter=rhombusPerimeter;whiteSpace=wrap;html=1;align=center;shadow=0;labelBackgroundColor=none;labelBorderColor=none;" parent="1" vertex="1">
          <mxGeometry x="1610" y="1930" width="90" height="50" as="geometry" />
        </mxCell>
        <mxCell id="olxThDtGMyigZw1vae8e-132" value="" style="edgeStyle=entityRelationEdgeStyle;fontSize=12;html=1;endArrow=none;endFill=1;rounded=0;curved=1;exitX=1;exitY=1;exitDx=0;exitDy=0;entryX=0;entryY=0.25;entryDx=0;entryDy=0;" parent="1" source="olxThDtGMyigZw1vae8e-85" target="olxThDtGMyigZw1vae8e-131" edge="1">
          <mxGeometry width="100" height="100" relative="1" as="geometry">
            <mxPoint x="1490" y="1900" as="sourcePoint" />
            <mxPoint x="1660" y="2060" as="targetPoint" />
          </mxGeometry>
        </mxCell>
        <mxCell id="olxThDtGMyigZw1vae8e-133" value="Roles" style="whiteSpace=wrap;html=1;align=center;shadow=0;labelBackgroundColor=none;labelBorderColor=none;" parent="1" vertex="1">
          <mxGeometry x="1580" y="1550" width="130" height="40" as="geometry" />
        </mxCell>
        <mxCell id="olxThDtGMyigZw1vae8e-135" value="" style="edgeStyle=entityRelationEdgeStyle;fontSize=12;html=1;endArrow=ERmandOne;startArrow=none;rounded=0;curved=1;exitX=0.5;exitY=0;exitDx=0;exitDy=0;entryX=0.406;entryY=1.068;entryDx=0;entryDy=0;entryPerimeter=0;" parent="1" source="olxThDtGMyigZw1vae8e-136" target="olxThDtGMyigZw1vae8e-133" edge="1">
          <mxGeometry width="100" height="100" relative="1" as="geometry">
            <mxPoint x="1180" y="1770" as="sourcePoint" />
            <mxPoint x="1280" y="1670" as="targetPoint" />
          </mxGeometry>
        </mxCell>
        <mxCell id="olxThDtGMyigZw1vae8e-137" value="" style="edgeStyle=entityRelationEdgeStyle;fontSize=12;html=1;endArrow=ERmandOne;startArrow=none;rounded=0;curved=1;exitX=1;exitY=0.25;exitDx=0;exitDy=0;" parent="1" source="olxThDtGMyigZw1vae8e-138" edge="1">
          <mxGeometry width="100" height="100" relative="1" as="geometry">
            <mxPoint x="1275" y="2200" as="sourcePoint" />
            <mxPoint x="1375" y="2100" as="targetPoint" />
          </mxGeometry>
        </mxCell>
        <mxCell id="olxThDtGMyigZw1vae8e-138" value="occurs at" style="shape=rhombus;perimeter=rhombusPerimeter;whiteSpace=wrap;html=1;align=center;shadow=0;labelBackgroundColor=none;labelBorderColor=none;" parent="1" vertex="1">
          <mxGeometry x="1220" y="2180" width="95" height="75" as="geometry" />
        </mxCell>
        <mxCell id="olxThDtGMyigZw1vae8e-140" value="" style="edgeStyle=entityRelationEdgeStyle;fontSize=12;html=1;endArrow=none;startArrow=ERmandOne;rounded=0;curved=1;exitX=1;exitY=0.25;exitDx=0;exitDy=0;" parent="1" source="olxThDtGMyigZw1vae8e-121" target="olxThDtGMyigZw1vae8e-138" edge="1">
          <mxGeometry width="100" height="100" relative="1" as="geometry">
            <mxPoint x="1140" y="2250.0000000000005" as="sourcePoint" />
            <mxPoint x="1375" y="2100.0000000000005" as="targetPoint" />
          </mxGeometry>
        </mxCell>
        <mxCell id="olxThDtGMyigZw1vae8e-141" value="Service Assignment" style="whiteSpace=wrap;html=1;align=center;shadow=0;labelBackgroundColor=none;labelBorderColor=none;" parent="1" vertex="1">
          <mxGeometry x="860" y="2140" width="130" height="40" as="geometry" />
        </mxCell>
        <mxCell id="olxThDtGMyigZw1vae8e-142" value="" style="edgeStyle=entityRelationEdgeStyle;fontSize=12;html=1;endArrow=ERmandOne;startArrow=none;rounded=0;curved=1;exitX=1;exitY=0.5;exitDx=0;exitDy=0;" parent="1" source="olxThDtGMyigZw1vae8e-143" edge="1">
          <mxGeometry width="100" height="100" relative="1" as="geometry">
            <mxPoint x="1120" y="2210" as="sourcePoint" />
            <mxPoint x="1370" y="2100" as="targetPoint" />
          </mxGeometry>
        </mxCell>
        <mxCell id="olxThDtGMyigZw1vae8e-143" value="Contains" style="shape=rhombus;perimeter=rhombusPerimeter;whiteSpace=wrap;html=1;align=center;shadow=0;labelBackgroundColor=none;labelBorderColor=none;" parent="1" vertex="1">
          <mxGeometry x="1125" y="2125" width="95" height="75" as="geometry" />
        </mxCell>
        <mxCell id="olxThDtGMyigZw1vae8e-144" value="" style="edgeStyle=entityRelationEdgeStyle;fontSize=12;html=1;endArrow=none;startArrow=ERmandOne;rounded=0;curved=1;exitX=1;exitY=0.5;exitDx=0;exitDy=0;" parent="1" source="olxThDtGMyigZw1vae8e-141" target="olxThDtGMyigZw1vae8e-143" edge="1">
          <mxGeometry width="100" height="100" relative="1" as="geometry">
            <mxPoint x="980" y="2180.0000000000005" as="sourcePoint" />
            <mxPoint x="1370" y="2100.0000000000005" as="targetPoint" />
          </mxGeometry>
        </mxCell>
        <mxCell id="olxThDtGMyigZw1vae8e-145" value="" style="edgeStyle=entityRelationEdgeStyle;fontSize=12;html=1;endArrow=ERoneToMany;startArrow=none;rounded=0;curved=1;entryX=1;entryY=0.75;entryDx=0;entryDy=0;" parent="1" source="olxThDtGMyigZw1vae8e-146" target="olxThDtGMyigZw1vae8e-94" edge="1">
          <mxGeometry width="100" height="100" relative="1" as="geometry">
            <mxPoint x="1410" y="2300" as="sourcePoint" />
            <mxPoint x="1480" y="2110" as="targetPoint" />
          </mxGeometry>
        </mxCell>
        <mxCell id="olxThDtGMyigZw1vae8e-146" value="has" style="shape=rhombus;perimeter=rhombusPerimeter;whiteSpace=wrap;html=1;align=center;shadow=0;labelBackgroundColor=none;labelBorderColor=none;" parent="1" vertex="1">
          <mxGeometry x="1455" y="2142.5" width="95" height="75" as="geometry" />
        </mxCell>
        <mxCell id="olxThDtGMyigZw1vae8e-147" value="" style="edgeStyle=entityRelationEdgeStyle;fontSize=12;html=1;endArrow=none;startArrow=ERmandOne;rounded=0;curved=1;entryX=0;entryY=0.5;entryDx=0;entryDy=0;exitX=1;exitY=0.25;exitDx=0;exitDy=0;" parent="1" source="olxThDtGMyigZw1vae8e-120" target="olxThDtGMyigZw1vae8e-146" edge="1">
          <mxGeometry width="100" height="100" relative="1" as="geometry">
            <mxPoint x="1410" y="2299.9999999999995" as="sourcePoint" />
            <mxPoint x="1505" y="2100.0000000000005" as="targetPoint" />
          </mxGeometry>
        </mxCell>
        <mxCell id="olxThDtGMyigZw1vae8e-148" value="" style="edgeStyle=entityRelationEdgeStyle;fontSize=12;html=1;endArrow=ERoneToMany;startArrow=none;rounded=0;curved=1;" parent="1" source="olxThDtGMyigZw1vae8e-149" target="olxThDtGMyigZw1vae8e-123" edge="1">
          <mxGeometry width="100" height="100" relative="1" as="geometry">
            <mxPoint x="1790" y="2080" as="sourcePoint" />
            <mxPoint x="1890" y="1980" as="targetPoint" />
          </mxGeometry>
        </mxCell>
        <mxCell id="olxThDtGMyigZw1vae8e-149" value="has" style="shape=rhombus;perimeter=rhombusPerimeter;whiteSpace=wrap;html=1;align=center;shadow=0;labelBackgroundColor=none;labelBorderColor=none;" parent="1" vertex="1">
          <mxGeometry x="2030" y="2092.5" width="65" height="55" as="geometry" />
        </mxCell>
        <mxCell id="olxThDtGMyigZw1vae8e-150" value="" style="edgeStyle=entityRelationEdgeStyle;fontSize=12;html=1;endArrow=none;startArrow=ERmandOne;rounded=0;curved=1;exitX=1;exitY=0.5;exitDx=0;exitDy=0;" parent="1" source="olxThDtGMyigZw1vae8e-122" target="olxThDtGMyigZw1vae8e-149" edge="1">
          <mxGeometry width="100" height="100" relative="1" as="geometry">
            <mxPoint x="1790" y="2080.0000000000005" as="sourcePoint" />
            <mxPoint x="1850" y="2321" as="targetPoint" />
          </mxGeometry>
        </mxCell>
        <mxCell id="olxThDtGMyigZw1vae8e-151" value="Spare Part Order" style="whiteSpace=wrap;html=1;align=center;shadow=0;labelBackgroundColor=none;labelBorderColor=none;" parent="1" vertex="1">
          <mxGeometry x="1710" y="1630" width="130" height="40" as="geometry" />
        </mxCell>
        <mxCell id="olxThDtGMyigZw1vae8e-152" value="Spare Parts" style="whiteSpace=wrap;html=1;align=center;shadow=0;labelBackgroundColor=none;labelBorderColor=none;" parent="1" vertex="1">
          <mxGeometry x="2070" y="1640" width="130" height="40" as="geometry" />
        </mxCell>
        <mxCell id="olxThDtGMyigZw1vae8e-153" value="" style="edgeStyle=entityRelationEdgeStyle;fontSize=12;html=1;endArrow=ERzeroToMany;startArrow=none;rounded=0;curved=1;entryX=0;entryY=0.5;entryDx=0;entryDy=0;" parent="1" source="olxThDtGMyigZw1vae8e-158" target="olxThDtGMyigZw1vae8e-151" edge="1">
          <mxGeometry width="100" height="100" relative="1" as="geometry">
            <mxPoint x="1490" y="1880" as="sourcePoint" />
            <mxPoint x="1590" y="1780" as="targetPoint" />
          </mxGeometry>
        </mxCell>
        <mxCell id="olxThDtGMyigZw1vae8e-155" value="" style="edgeStyle=entityRelationEdgeStyle;fontSize=12;html=1;endArrow=ERzeroToMany;endFill=1;startArrow=none;rounded=0;curved=1;entryX=0;entryY=0.5;entryDx=0;entryDy=0;" parent="1" target="olxThDtGMyigZw1vae8e-152" edge="1">
          <mxGeometry width="100" height="100" relative="1" as="geometry">
            <mxPoint x="1900" y="1650" as="sourcePoint" />
            <mxPoint x="1940" y="1550" as="targetPoint" />
          </mxGeometry>
        </mxCell>
        <mxCell id="olxThDtGMyigZw1vae8e-157" value="" style="edgeStyle=entityRelationEdgeStyle;fontSize=12;html=1;endArrow=none;endFill=1;startArrow=ERzeroToMany;rounded=0;curved=1;entryX=0;entryY=0.5;entryDx=0;entryDy=0;" parent="1" edge="1">
          <mxGeometry width="100" height="100" relative="1" as="geometry">
            <mxPoint x="1840" y="1650" as="sourcePoint" />
            <mxPoint x="1900" y="1650" as="targetPoint" />
          </mxGeometry>
        </mxCell>
        <mxCell id="olxThDtGMyigZw1vae8e-158" value="places" style="shape=rhombus;perimeter=rhombusPerimeter;whiteSpace=wrap;html=1;align=center;shadow=0;labelBackgroundColor=none;labelBorderColor=none;" parent="1" vertex="1">
          <mxGeometry x="1610" y="1750" width="90" height="50" as="geometry" />
        </mxCell>
        <mxCell id="olxThDtGMyigZw1vae8e-159" value="" style="edgeStyle=entityRelationEdgeStyle;fontSize=12;html=1;endArrow=none;startArrow=ERmandOne;rounded=0;curved=1;entryX=0;entryY=0.5;entryDx=0;entryDy=0;" parent="1" target="olxThDtGMyigZw1vae8e-158" edge="1">
          <mxGeometry width="100" height="100" relative="1" as="geometry">
            <mxPoint x="1490" y="1880" as="sourcePoint" />
            <mxPoint x="1710" y="1650" as="targetPoint" />
          </mxGeometry>
        </mxCell>
        <mxCell id="olxThDtGMyigZw1vae8e-160" value="Mechanic" style="whiteSpace=wrap;html=1;align=center;shadow=0;labelBackgroundColor=none;labelBorderColor=none;" parent="1" vertex="1">
          <mxGeometry x="910" y="1850" width="130" height="40" as="geometry" />
        </mxCell>
        <mxCell id="olxThDtGMyigZw1vae8e-136" value="has" style="shape=rhombus;perimeter=rhombusPerimeter;whiteSpace=wrap;html=1;align=center;shadow=0;labelBackgroundColor=none;labelBorderColor=none;" parent="1" vertex="1">
          <mxGeometry x="1540" y="1700" width="90" height="50" as="geometry" />
        </mxCell>
        <mxCell id="olxThDtGMyigZw1vae8e-171" value="" style="edgeStyle=entityRelationEdgeStyle;fontSize=12;html=1;endArrow=none;startArrow=ERmandOne;rounded=0;curved=1;entryX=0.5;entryY=1;entryDx=0;entryDy=0;" parent="1" source="olxThDtGMyigZw1vae8e-85" target="olxThDtGMyigZw1vae8e-136" edge="1">
          <mxGeometry width="100" height="100" relative="1" as="geometry">
            <mxPoint x="1490" y="1870" as="sourcePoint" />
            <mxPoint x="1450" y="1725" as="targetPoint" />
          </mxGeometry>
        </mxCell>
        <mxCell id="olxThDtGMyigZw1vae8e-173" value="Messages" style="whiteSpace=wrap;html=1;align=center;shadow=0;labelBackgroundColor=none;labelBorderColor=none;" parent="1" vertex="1">
          <mxGeometry x="1210" y="1600" width="130" height="40" as="geometry" />
        </mxCell>
        <mxCell id="olxThDtGMyigZw1vae8e-175" value="" style="edgeStyle=entityRelationEdgeStyle;fontSize=12;html=1;endArrow=ERmany;startArrow=none;rounded=0;curved=1;" parent="1" source="olxThDtGMyigZw1vae8e-174" edge="1">
          <mxGeometry width="100" height="100" relative="1" as="geometry">
            <mxPoint x="1315" y="1650" as="sourcePoint" />
            <mxPoint x="1390" y="1860" as="targetPoint" />
          </mxGeometry>
        </mxCell>
        <mxCell id="olxThDtGMyigZw1vae8e-174" value="send" style="shape=rhombus;perimeter=rhombusPerimeter;whiteSpace=wrap;html=1;align=center;shadow=0;labelBackgroundColor=none;labelBorderColor=none;" parent="1" vertex="1">
          <mxGeometry x="1285" y="1730" width="90" height="50" as="geometry" />
        </mxCell>
        <mxCell id="olxThDtGMyigZw1vae8e-176" value="" style="fontSize=12;html=1;endArrow=none;startArrow=ERmany;rounded=0;entryX=0;entryY=0.5;entryDx=0;entryDy=0;exitX=0.004;exitY=0.641;exitDx=0;exitDy=0;exitPerimeter=0;elbow=vertical;edgeStyle=orthogonalEdgeStyle;curved=1;" parent="1" source="olxThDtGMyigZw1vae8e-173" target="olxThDtGMyigZw1vae8e-174" edge="1">
          <mxGeometry width="100" height="100" relative="1" as="geometry">
            <mxPoint x="1315" y="1650" as="sourcePoint" />
            <mxPoint x="1390" y="1860" as="targetPoint" />
          </mxGeometry>
        </mxCell>
        <mxCell id="olxThDtGMyigZw1vae8e-177" value="Carrier Service" style="whiteSpace=wrap;html=1;align=center;shadow=0;labelBackgroundColor=none;labelBorderColor=none;" parent="1" vertex="1">
          <mxGeometry x="690" y="2341" width="130" height="40" as="geometry" />
        </mxCell>
        <mxCell id="rgutTOAmANJ4pL7Stby1-1" value="Notifications" style="whiteSpace=wrap;html=1;align=center;shadow=0;labelBackgroundColor=none;labelBorderColor=none;" vertex="1" parent="1">
          <mxGeometry x="930" y="1670" width="130" height="40" as="geometry" />
        </mxCell>
        <mxCell id="rgutTOAmANJ4pL7Stby1-2" value="" style="edgeStyle=entityRelationEdgeStyle;fontSize=12;html=1;endArrow=ERoneToMany;startArrow=none;rounded=0;curved=1;elbow=vertical;exitX=0;exitY=0.25;exitDx=0;exitDy=0;" edge="1" parent="1" source="rgutTOAmANJ4pL7Stby1-3" target="rgutTOAmANJ4pL7Stby1-1">
          <mxGeometry width="100" height="100" relative="1" as="geometry">
            <mxPoint x="1140" y="1820" as="sourcePoint" />
            <mxPoint x="1240" y="1720" as="targetPoint" />
          </mxGeometry>
        </mxCell>
        <mxCell id="rgutTOAmANJ4pL7Stby1-3" value="manages" style="shape=rhombus;perimeter=rhombusPerimeter;whiteSpace=wrap;html=1;align=center;shadow=0;labelBackgroundColor=none;labelBorderColor=none;" vertex="1" parent="1">
          <mxGeometry x="1195" y="1770" width="90" height="45" as="geometry" />
        </mxCell>
        <mxCell id="rgutTOAmANJ4pL7Stby1-4" value="" style="edgeStyle=entityRelationEdgeStyle;fontSize=12;html=1;endArrow=none;startArrow=ERmandOne;rounded=0;curved=1;elbow=vertical;exitX=0;exitY=0.25;exitDx=0;exitDy=0;" edge="1" parent="1" source="olxThDtGMyigZw1vae8e-85" target="rgutTOAmANJ4pL7Stby1-3">
          <mxGeometry width="100" height="100" relative="1" as="geometry">
            <mxPoint x="1390" y="1870" as="sourcePoint" />
            <mxPoint x="1080" y="1720" as="targetPoint" />
          </mxGeometry>
        </mxCell>
        <mxCell id="rgutTOAmANJ4pL7Stby1-5" value="Service Provider" style="whiteSpace=wrap;html=1;align=center;shadow=0;labelBackgroundColor=none;labelBorderColor=none;" vertex="1" parent="1">
          <mxGeometry x="650" y="1705" width="130" height="40" as="geometry" />
        </mxCell>
        <mxCell id="rgutTOAmANJ4pL7Stby1-7" value="" style="edgeStyle=orthogonalEdgeStyle;fontSize=12;html=1;endArrow=ERmandOne;startArrow=none;rounded=0;curved=1;elbow=vertical;exitX=0.5;exitY=0;exitDx=0;exitDy=0;entryX=0;entryY=0.5;entryDx=0;entryDy=0;" edge="1" parent="1" source="rgutTOAmANJ4pL7Stby1-8" target="olxThDtGMyigZw1vae8e-141">
          <mxGeometry width="100" height="100" relative="1" as="geometry">
            <mxPoint x="760" y="2267.5" as="sourcePoint" />
            <mxPoint x="860" y="2167.5" as="targetPoint" />
          </mxGeometry>
        </mxCell>
        <mxCell id="rgutTOAmANJ4pL7Stby1-8" value="Contains" style="shape=rhombus;perimeter=rhombusPerimeter;whiteSpace=wrap;html=1;align=center;shadow=0;labelBackgroundColor=none;labelBorderColor=none;" vertex="1" parent="1">
          <mxGeometry x="765" y="2217.5" width="95" height="75" as="geometry" />
        </mxCell>
        <mxCell id="rgutTOAmANJ4pL7Stby1-9" value="" style="edgeStyle=orthogonalEdgeStyle;fontSize=12;html=1;endArrow=none;startArrow=ERmandOne;rounded=0;curved=1;elbow=vertical;exitX=1;exitY=0.25;exitDx=0;exitDy=0;entryX=0.5;entryY=1;entryDx=0;entryDy=0;" edge="1" parent="1" source="olxThDtGMyigZw1vae8e-177" target="rgutTOAmANJ4pL7Stby1-8">
          <mxGeometry width="100" height="100" relative="1" as="geometry">
            <mxPoint x="840" y="2360" as="sourcePoint" />
            <mxPoint x="860" y="2160" as="targetPoint" />
          </mxGeometry>
        </mxCell>
        <mxCell id="rgutTOAmANJ4pL7Stby1-10" value="" style="edgeStyle=orthogonalEdgeStyle;fontSize=12;html=1;endArrow=ERoneToMany;startArrow=none;rounded=0;curved=1;elbow=vertical;entryX=0;entryY=0.25;entryDx=0;entryDy=0;exitX=0.5;exitY=1;exitDx=0;exitDy=0;" edge="1" parent="1" source="rgutTOAmANJ4pL7Stby1-11" target="olxThDtGMyigZw1vae8e-141">
          <mxGeometry width="100" height="100" relative="1" as="geometry">
            <mxPoint x="730" y="2050" as="sourcePoint" />
            <mxPoint x="830" y="1950" as="targetPoint" />
          </mxGeometry>
        </mxCell>
        <mxCell id="rgutTOAmANJ4pL7Stby1-11" value="Accepts" style="shape=rhombus;perimeter=rhombusPerimeter;whiteSpace=wrap;html=1;align=center;shadow=0;labelBackgroundColor=none;labelBorderColor=none;" vertex="1" parent="1">
          <mxGeometry x="815" y="1980" width="95" height="50" as="geometry" />
        </mxCell>
        <mxCell id="rgutTOAmANJ4pL7Stby1-12" value="" style="edgeStyle=orthogonalEdgeStyle;fontSize=12;html=1;endArrow=none;startArrow=ERmandOne;rounded=0;curved=1;elbow=vertical;entryX=0.5;entryY=0;entryDx=0;entryDy=0;exitX=0;exitY=0.75;exitDx=0;exitDy=0;" edge="1" parent="1" source="olxThDtGMyigZw1vae8e-160" target="rgutTOAmANJ4pL7Stby1-11">
          <mxGeometry width="100" height="100" relative="1" as="geometry">
            <mxPoint x="910" y="1880" as="sourcePoint" />
            <mxPoint x="860" y="2150" as="targetPoint" />
          </mxGeometry>
        </mxCell>
        <mxCell id="rgutTOAmANJ4pL7Stby1-16" value="" style="edgeStyle=entityRelationEdgeStyle;fontSize=12;html=1;endArrow=ERzeroToMany;startArrow=none;rounded=0;curved=1;elbow=vertical;entryX=0;entryY=0.25;entryDx=0;entryDy=0;" edge="1" parent="1" source="rgutTOAmANJ4pL7Stby1-17" target="olxThDtGMyigZw1vae8e-160">
          <mxGeometry width="100" height="100" relative="1" as="geometry">
            <mxPoint x="780" y="1720" as="sourcePoint" />
            <mxPoint x="880" y="1630" as="targetPoint" />
          </mxGeometry>
        </mxCell>
        <mxCell id="rgutTOAmANJ4pL7Stby1-17" value="manages" style="shape=rhombus;perimeter=rhombusPerimeter;whiteSpace=wrap;html=1;align=center;shadow=0;labelBackgroundColor=none;labelBorderColor=none;" vertex="1" parent="1">
          <mxGeometry x="800" y="1770" width="90" height="45" as="geometry" />
        </mxCell>
        <mxCell id="rgutTOAmANJ4pL7Stby1-18" value="" style="edgeStyle=entityRelationEdgeStyle;fontSize=12;html=1;endArrow=none;startArrow=ERmandOne;rounded=0;curved=1;elbow=vertical;entryX=0;entryY=0.25;entryDx=0;entryDy=0;" edge="1" parent="1" target="rgutTOAmANJ4pL7Stby1-17">
          <mxGeometry width="100" height="100" relative="1" as="geometry">
            <mxPoint x="780" y="1720" as="sourcePoint" />
            <mxPoint x="910" y="1860" as="targetPoint" />
          </mxGeometry>
        </mxCell>
        <mxCell id="rgutTOAmANJ4pL7Stby1-19" value="includes&lt;br&gt;" style="text;html=1;align=center;verticalAlign=middle;resizable=0;points=[];autosize=1;strokeColor=none;fillColor=none;" vertex="1" parent="1">
          <mxGeometry x="1915" y="1629" width="70" height="30" as="geometry" />
        </mxCell>
        <mxCell id="rgutTOAmANJ4pL7Stby1-20" value="Reports" style="whiteSpace=wrap;html=1;align=center;shadow=0;labelBackgroundColor=none;labelBorderColor=none;" vertex="1" parent="1">
          <mxGeometry x="1390" y="1530" width="130" height="40" as="geometry" />
        </mxCell>
        <mxCell id="rgutTOAmANJ4pL7Stby1-21" value="" style="edgeStyle=orthogonalEdgeStyle;fontSize=12;html=1;endArrow=ERzeroToMany;endFill=1;rounded=0;curved=1;elbow=vertical;exitX=0.5;exitY=0;exitDx=0;exitDy=0;entryX=0.5;entryY=1;entryDx=0;entryDy=0;startArrow=none;" edge="1" parent="1" source="rgutTOAmANJ4pL7Stby1-22" target="rgutTOAmANJ4pL7Stby1-20">
          <mxGeometry width="100" height="100" relative="1" as="geometry">
            <mxPoint x="1380" y="1670" as="sourcePoint" />
            <mxPoint x="1480" y="1570" as="targetPoint" />
          </mxGeometry>
        </mxCell>
        <mxCell id="rgutTOAmANJ4pL7Stby1-22" value="genereates" style="shape=rhombus;perimeter=rhombusPerimeter;whiteSpace=wrap;html=1;align=center;shadow=0;labelBackgroundColor=none;labelBorderColor=none;" vertex="1" parent="1">
          <mxGeometry x="1400" y="1690" width="90" height="50" as="geometry" />
        </mxCell>
        <mxCell id="rgutTOAmANJ4pL7Stby1-23" value="" style="edgeStyle=orthogonalEdgeStyle;fontSize=12;html=1;endArrow=none;endFill=1;rounded=0;curved=1;elbow=vertical;exitX=0.36;exitY=-0.1;exitDx=0;exitDy=0;exitPerimeter=0;entryX=0.5;entryY=1;entryDx=0;entryDy=0;" edge="1" parent="1" source="olxThDtGMyigZw1vae8e-85" target="rgutTOAmANJ4pL7Stby1-22">
          <mxGeometry width="100" height="100" relative="1" as="geometry">
            <mxPoint x="1426" y="1856" as="sourcePoint" />
            <mxPoint x="1455" y="1570" as="targetPoint" />
          </mxGeometry>
        </mxCell>
        <mxCell id="rgutTOAmANJ4pL7Stby1-24" value="Rating" style="whiteSpace=wrap;html=1;align=center;shadow=0;labelBackgroundColor=none;labelBorderColor=none;" vertex="1" parent="1">
          <mxGeometry x="860" y="1430" width="130" height="40" as="geometry" />
        </mxCell>
        <mxCell id="rgutTOAmANJ4pL7Stby1-25" value="Criteria" style="whiteSpace=wrap;html=1;align=center;shadow=0;labelBackgroundColor=none;labelBorderColor=none;" vertex="1" parent="1">
          <mxGeometry x="1125" y="1270" width="130" height="40" as="geometry" />
        </mxCell>
        <mxCell id="rgutTOAmANJ4pL7Stby1-27" value="" style="edgeStyle=entityRelationEdgeStyle;fontSize=12;html=1;endArrow=ERoneToMany;startArrow=none;rounded=0;curved=1;elbow=vertical;entryX=0;entryY=0.75;entryDx=0;entryDy=0;" edge="1" parent="1" source="rgutTOAmANJ4pL7Stby1-28" target="rgutTOAmANJ4pL7Stby1-24">
          <mxGeometry width="100" height="100" relative="1" as="geometry">
            <mxPoint x="730" y="1705" as="sourcePoint" />
            <mxPoint x="830" y="1605" as="targetPoint" />
          </mxGeometry>
        </mxCell>
        <mxCell id="rgutTOAmANJ4pL7Stby1-28" value="has" style="shape=rhombus;perimeter=rhombusPerimeter;whiteSpace=wrap;html=1;align=center;shadow=0;labelBackgroundColor=none;labelBorderColor=none;" vertex="1" parent="1">
          <mxGeometry x="760" y="1545" width="90" height="45" as="geometry" />
        </mxCell>
        <mxCell id="rgutTOAmANJ4pL7Stby1-29" value="" style="edgeStyle=entityRelationEdgeStyle;fontSize=12;html=1;endArrow=none;startArrow=ERmandOne;rounded=0;curved=1;elbow=vertical;entryX=0;entryY=0.75;entryDx=0;entryDy=0;" edge="1" parent="1" target="rgutTOAmANJ4pL7Stby1-28">
          <mxGeometry width="100" height="100" relative="1" as="geometry">
            <mxPoint x="730" y="1705" as="sourcePoint" />
            <mxPoint x="860" y="1460" as="targetPoint" />
          </mxGeometry>
        </mxCell>
        <mxCell id="rgutTOAmANJ4pL7Stby1-30" value="" style="endArrow=none;html=1;rounded=0;curved=1;elbow=vertical;entryX=0;entryY=0.5;entryDx=0;entryDy=0;" edge="1" parent="1" target="rgutTOAmANJ4pL7Stby1-25">
          <mxGeometry relative="1" as="geometry">
            <mxPoint x="990" y="1440" as="sourcePoint" />
            <mxPoint x="1150" y="1440" as="targetPoint" />
          </mxGeometry>
        </mxCell>
      </root>
    </mxGraphModel>
  </diagram>
</mxfile>
